
Unstoppable.Cam.XViD-DiNKY

General:

Format : AVI
Format/Info : Audio Video Interleave
File size : 634 MiB
Duration : 1h 32mn
Overall bit rate : 960 Kbps

Video:
ID : 0
Format : MPEG-4 Visual
Format profile : Advanced Simple@L5
Format settings, BVOP : No
Format settings, QPel : No
Format settings, GMC : No warppoints
Format settings, Matrix : Default (MPEG)
Codec ID : XVID
Codec ID/Hint : XviD
Duration : 1h 32mn
Bit rate : 761 Kbps
Width : 698 pixels
Height : 272 pixels
Display aspect ratio : 2.566
Frame rate : 25.000 fps
Color space : YUV
Chroma subsampling : 4:2:0
Bit depth : 8 bits
Scan type : Progressive
Bits/(Pixel*Frame) : 0.160
Stream size : 503 MiB (79%)
Writing library : XviD 1.2.1 (UTC 2008-12-04)

Audio:
ID : 1
Format : MPEG Audio
Format version : Version 1
Format profile : Layer 3
Codec ID : 55
Codec ID/Hint : MP3
Duration : 1h 32mn
Bit rate mode : Constant
Bit rate : 192 Kbps
Channel(s) : 2 channels
Sampling rate : 44.1 KHz
Stream size : 127 MiB (20%)
Alignment : Split accross interleaves
Interleave, duration : 80 ms (2.00 video frames)

